<?xml version="1.0" standalone="no"?>
<!DOCTYPE svg PUBLIC "-//W3C//DTD SVG 20010904//EN"
 "http://www.w3.org/TR/2001/REC-SVG-20010904/DTD/svg10.dtd">
<svg version="1.0" xmlns="http://www.w3.org/2000/svg"
 width="500.000000pt" height="500.000000pt" viewBox="0 0 500.000000 500.000000"
 preserveAspectRatio="xMidYMid meet">

<g transform="translate(0.000000,500.000000) scale(0.100000,-0.100000)"
fill="#FFFFFF" stroke="none">
<path d="M2830 4109 c-354 -193 -529 -307 -647 -425 l-83 -81 0 -245 0 -245
-59 -6 c-180 -19 -276 -118 -306 -316 l-7 -44 38 31 c53 41 100 52 227 52
l107 0 0 -40 c0 -38 -2 -40 -30 -40 -46 0 -131 -21 -175 -42 -84 -42 -126
-103 -151 -217 -18 -87 -18 -88 9 -63 35 33 77 42 221 49 l129 6 -6 -159 c-4
-135 -10 -177 -37 -282 -18 -68 -30 -126 -26 -129 9 -9 149 45 201 78 89 56
140 131 172 251 14 55 17 149 20 759 l4 696 74 73 c41 41 76 72 79 69 2 -2 6
-474 8 -1049 3 -988 2 -1047 -15 -1085 -32 -70 -88 -115 -144 -115 -40 0 -116
38 -224 112 -163 113 -217 131 -334 109 -198 -36 -357 -208 -387 -418 -44
-302 154 -539 492 -592 179 -28 478 -21 615 14 156 40 306 150 338 250 9 28
19 75 22 105 l6 55 -20 -36 c-44 -79 -110 -124 -229 -154 -51 -13 -126 -17
-395 -18 -291 -1 -340 1 -397 16 -97 27 -220 90 -280 144 -84 75 -99 137 -56
228 38 83 111 134 206 142 47 5 64 1 110 -22 30 -15 77 -44 104 -65 96 -71
109 -75 238 -74 110 0 120 2 181 32 71 35 172 134 207 202 47 92 52 136 57
510 2 195 9 372 14 393 6 20 26 53 45 72 31 31 40 35 89 35 46 0 59 -5 88 -30
19 -16 39 -42 45 -57 7 -17 12 -165 15 -378 5 -417 11 -454 88 -570 78 -116
146 -161 195 -130 39 25 399 415 399 432 0 26 -20 26 -51 0 -100 -84 -224 -90
-275 -13 -12 18 -14 147 -17 795 l-3 774 89 91 c130 134 225 276 206 309 -4 7
-16 22 -27 35 l-21 22 -31 -67 c-41 -88 -114 -185 -166 -223 -23 -16 -46 -30
-50 -30 -5 0 -13 19 -19 43 -43 167 -106 307 -210 467 -40 61 -73 110 -74 110
0 0 -84 -46 -186 -101z m-19 -206 c37 -43 133 -237 149 -304 6 -24 13 -148 17
-275 6 -230 6 -231 -18 -273 -62 -111 -185 -107 -244 8 l-25 50 0 401 0 400
33 14 c47 21 52 20 88 -21z m30 -978 c44 0 65 6 97 28 l42 27 0 -170 c0 -93
-2 -170 -5 -170 -2 0 -19 9 -37 20 -25 15 -51 20 -103 20 -52 0 -78 -5 -103
-20 -18 -11 -35 -20 -37 -20 -3 0 -5 77 -5 170 l0 171 47 -28 c37 -21 61 -28
104 -28z"/>
<path d="M1694 4109 c-129 -23 -254 -141 -303 -286 -16 -49 -18 -70 -12 -119
21 -144 57 -193 156 -214 92 -19 193 9 279 79 48 38 41 39 -27 4 -47 -24 -63
-27 -159 -28 -119 0 -144 10 -182 74 -26 44 -25 154 2 190 32 43 59 52 147 48
69 -3 100 -12 220 -60 77 -31 161 -61 187 -67 l47 -12 83 58 c77 53 228 172
228 178 0 2 -30 3 -67 3 -60 0 -83 6 -186 52 -192 83 -325 115 -413 100z"/>
</g>
</svg>
